<svg width="24" height="24" viewBox="0 0 24 24" fill="none" xmlns="http://www.w3.org/2000/svg">
<path fill-rule="evenodd" clip-rule="evenodd" d="M12 17.762C11.1312 17.762 10.4286 18.5817 10.4286 19.5953C10.4286 20.9703 12 23.0001 12 23.0001C12 23.0001 13.5714 20.9703 13.5714 19.5953C13.5714 18.5817 12.8688 17.762 12 17.762Z" fill="#524F53"/>
<path d="M5.51782 15.7322L9.05354 11.6072V17.5L5.51782 19.8572V15.7322Z" fill="#524F53"/>
<path d="M18.4821 15.7322L14.9463 11.6072V17.5L18.4821 19.8572V15.7322Z" fill="#524F53"/>
<path fill-rule="evenodd" clip-rule="evenodd" d="M8.82684 7.98077C8.46688 9.78055 8.61735 12.75 8.7354 15.0798C8.78385 16.036 8.82684 16.8844 8.82684 17.5H11.9999L11.9999 9.83929L11.9999 17.5H15.173C15.173 16.8844 15.216 16.036 15.2644 15.0798C15.3825 12.75 15.533 9.78055 15.173 7.98077C14.6653 5.44231 12.8461 2.26923 11.9999 1L11.9999 6.89286L11.9999 1C11.1538 2.26923 9.33453 5.44231 8.82684 7.98077ZM11.9999 6.89286C11.1863 6.89286 10.5267 7.55244 10.5267 8.36607C10.5267 9.1797 11.1863 9.83929 11.9999 9.83929C12.8135 9.83929 13.4731 9.1797 13.4731 8.36607C13.4731 7.55244 12.8135 6.89286 11.9999 6.89286Z" fill="#524F53"/>
</svg>
